<svg width="8" height="7" viewBox="0 0 8 7" fill="none" xmlns="http://www.w3.org/2000/svg">
<path d="M3.92797 0.217773C3.26031 0.217773 2.60765 0.415756 2.05252 0.786685C1.49738 1.15761 1.06471 1.68483 0.809209 2.30166C0.553709 2.91849 0.486858 3.59724 0.617111 4.25206C0.747364 4.90689 1.06887 5.50839 1.54097 5.98049C2.01308 6.45259 2.61457 6.7741 3.2694 6.90435C3.92422 7.03461 4.60297 6.96775 5.2198 6.71225C5.83663 6.45675 6.36385 6.02408 6.73478 5.46895C7.10571 4.91381 7.30369 4.26115 7.30369 3.59349C7.30369 2.6982 6.94803 1.83957 6.31496 1.2065C5.68189 0.573429 4.82327 0.217773 3.92797 0.217773ZM3.92797 5.78471C3.49459 5.78471 3.07094 5.6562 2.7106 5.41542C2.35025 5.17465 2.0694 4.83243 1.90355 4.43204C1.7377 4.03164 1.69431 3.59106 1.77886 3.16601C1.86341 2.74096 2.0721 2.35052 2.37855 2.04407C2.68499 1.73763 3.07543 1.52893 3.50048 1.44438C3.92554 1.35984 4.36612 1.40323 4.76651 1.56908C5.1669 1.73492 5.50912 2.01578 5.7499 2.37612C5.99067 2.73646 6.11918 3.16011 6.11918 3.59349C6.11918 4.17464 5.88832 4.73198 5.47739 5.14292C5.06646 5.55385 4.50911 5.78471 3.92797 5.78471Z" fill="white"/>
</svg>
