<svg width="119" height="16" viewBox="0 0 119 16" fill="none" xmlns="http://www.w3.org/2000/svg">
<path d="M3.968 15.32C3.392 14.7653 2.85867 14.104 2.368 13.336C1.87733 12.5787 1.48267 11.7253 1.184 10.776C0.896 9.816 0.752 8.78133 0.752 7.672C0.752 6.56267 0.896 5.53333 1.184 4.584C1.48267 3.624 1.87733 2.76533 2.368 2.008C2.85867 1.24 3.392 0.578666 3.968 0.0239992H5.344V0.151999C4.36267 1.112 3.57333 2.23733 2.976 3.528C2.38933 4.808 2.096 6.18933 2.096 7.672C2.096 9.15467 2.39467 10.5413 2.992 11.832C3.58933 13.112 4.37333 14.232 5.344 15.192V15.32H3.968ZM11.5841 13V10.6H5.90413V9.56L11.3441 1.8H12.9121V9.416H14.5761V10.6H12.9121V13H11.5841ZM7.39213 9.416H11.6481V3.288L7.39213 9.416ZM17.3036 13V3.304L15.4956 3.704V2.776L17.7516 1.8H18.6636V13H17.3036ZM26.0998 13V10.6H20.4198V9.56L25.8598 1.8H27.4278V9.416H29.0918V10.6H27.4278V13H26.0998ZM21.9078 9.416H26.1638V3.288L21.9078 9.416ZM30.1393 15.32V15.192C31.1099 14.232 31.8939 13.112 32.4913 11.832C33.0993 10.5413 33.4033 9.15467 33.4033 7.672C33.4033 6.18933 33.1046 4.808 32.5073 3.528C31.9099 2.23733 31.1259 1.112 30.1553 0.151999V0.0239992H31.5153C32.1019 0.578666 32.6353 1.24 33.1153 2.008C33.6059 2.76533 33.9953 3.624 34.2833 4.584C34.5819 5.53333 34.7313 6.56267 34.7313 7.672C34.7313 8.78133 34.5819 9.816 34.2833 10.776C33.9953 11.7253 33.6059 12.5787 33.1153 13.336C32.6353 14.104 32.1019 14.7653 31.5153 15.32H30.1393ZM44.5988 13.192C43.8628 13.192 43.2014 13.0587 42.6148 12.792C42.0281 12.5147 41.5641 12.136 41.2228 11.656C40.8921 11.1653 40.7268 10.6 40.7268 9.96C40.7268 9.27733 40.9241 8.664 41.3188 8.12C41.7241 7.576 42.2574 7.21333 42.9188 7.032C42.3108 6.82933 41.8414 6.504 41.5108 6.056C41.1801 5.608 41.0148 5.11733 41.0148 4.584C41.0148 4.04 41.1588 3.544 41.4468 3.096C41.7348 2.63733 42.1454 2.27467 42.6788 2.008C43.2121 1.74133 43.8521 1.608 44.5988 1.608C45.3454 1.608 45.9854 1.74133 46.5188 2.008C47.0521 2.27467 47.4628 2.63733 47.7508 3.096C48.0388 3.544 48.1828 4.04 48.1828 4.584C48.1828 5.10667 48.0174 5.59733 47.6868 6.056C47.3561 6.504 46.8868 6.82933 46.2788 7.032C46.9401 7.21333 47.4681 7.576 47.8628 8.12C48.2681 8.664 48.4708 9.27733 48.4708 9.96C48.4708 10.6 48.3001 11.1653 47.9588 11.656C47.6281 12.136 47.1694 12.5147 46.5828 12.792C45.9961 13.0587 45.3348 13.192 44.5988 13.192ZM44.5988 6.552C45.2814 6.552 45.8201 6.38133 46.2148 6.04C46.6201 5.688 46.8228 5.22933 46.8228 4.664C46.8228 4.03467 46.6254 3.56 46.2308 3.24C45.8361 2.92 45.2921 2.76 44.5988 2.76C43.9054 2.76 43.3614 2.92 42.9668 3.24C42.5828 3.56 42.3908 4.03467 42.3908 4.664C42.3908 5.22933 42.5881 5.688 42.9828 6.04C43.3774 6.38133 43.9161 6.552 44.5988 6.552ZM44.5988 12.008C45.4414 12.008 46.0708 11.816 46.4868 11.432C46.9134 11.0373 47.1268 10.52 47.1268 9.88C47.1268 9.15467 46.8974 8.60533 46.4388 8.232C45.9801 7.85867 45.3668 7.672 44.5988 7.672C43.8308 7.672 43.2174 7.85867 42.7588 8.232C42.3001 8.60533 42.0707 9.15467 42.0707 9.88C42.0707 10.52 42.2788 11.0373 42.6948 11.432C43.1214 11.816 43.7561 12.008 44.5988 12.008ZM54.4764 13.192C53.7084 13.192 53.0417 13.0533 52.4764 12.776C51.911 12.4987 51.4577 12.12 51.1164 11.64C50.7857 11.1493 50.583 10.5947 50.5084 9.976H51.8204C51.9484 10.5947 52.247 11.096 52.7164 11.48C53.1857 11.8533 53.7777 12.04 54.4924 12.04C55.0257 12.04 55.4844 11.9173 55.8684 11.672C56.2524 11.416 56.5457 11.0747 56.7484 10.648C56.9617 10.2213 57.0684 9.74667 57.0684 9.224C57.0684 8.392 56.8337 7.72 56.3644 7.208C55.895 6.696 55.287 6.44 54.5404 6.44C53.9217 6.44 53.3937 6.57867 52.9564 6.856C52.519 7.13333 52.199 7.496 51.9964 7.944H50.7164L51.6764 1.8H57.5484V2.968H52.7164L52.0604 6.376C52.3164 6.06667 52.6684 5.81067 53.1164 5.608C53.575 5.40533 54.0977 5.304 54.6844 5.304C55.4204 5.304 56.0604 5.47467 56.6044 5.816C57.159 6.15733 57.591 6.62133 57.9004 7.208C58.2097 7.79467 58.3644 8.46133 58.3644 9.208C58.3644 9.92267 58.2097 10.584 57.9004 11.192C57.6017 11.8 57.159 12.2853 56.5724 12.648C55.9964 13.0107 55.2977 13.192 54.4764 13.192ZM61.1276 13L65.5756 2.952H59.4316V1.8H66.9516V2.808L62.5516 13H61.1276ZM72.7253 8.92V7.784H79.0613V8.92H72.7253ZM89.7708 13.192C88.7788 13.192 87.9201 12.952 87.1948 12.472C86.4801 11.9813 85.9308 11.304 85.5468 10.44C85.1628 9.56533 84.9708 8.552 84.9708 7.4C84.9708 6.248 85.1628 5.24 85.5468 4.376C85.9308 3.50133 86.4801 2.824 87.1948 2.344C87.9201 1.85333 88.7788 1.608 89.7708 1.608C90.7628 1.608 91.6161 1.85333 92.3308 2.344C93.0454 2.824 93.5948 3.50133 93.9788 4.376C94.3628 5.24 94.5548 6.248 94.5548 7.4C94.5548 8.552 94.3628 9.56533 93.9788 10.44C93.5948 11.304 93.0454 11.9813 92.3308 12.472C91.6161 12.952 90.7628 13.192 89.7708 13.192ZM89.7708 12.008C90.4214 12.008 91.0028 11.8267 91.5148 11.464C92.0374 11.0907 92.4427 10.5627 92.7308 9.88C93.0294 9.18667 93.1788 8.36 93.1788 7.4C93.1788 6.44 93.0294 5.61867 92.7308 4.936C92.4427 4.25333 92.0374 3.73067 91.5148 3.368C91.0028 2.99467 90.4214 2.808 89.7708 2.808C89.1094 2.808 88.5228 2.99467 88.0108 3.368C87.4988 3.73067 87.0934 4.25333 86.7948 4.936C86.4961 5.61867 86.3468 6.44 86.3468 7.4C86.3468 8.36 86.4961 9.18667 86.7948 9.88C87.0934 10.5627 87.4988 11.0907 88.0108 11.464C88.5228 11.8267 89.1094 12.008 89.7708 12.008ZM97.6005 13V3.304L95.7925 3.704V2.776L98.0485 1.8H98.9605V13H97.6005ZM105.693 13.192C104.701 13.192 103.842 12.952 103.117 12.472C102.402 11.9813 101.853 11.304 101.469 10.44C101.085 9.56533 100.893 8.552 100.893 7.4C100.893 6.248 101.085 5.24 101.469 4.376C101.853 3.50133 102.402 2.824 103.117 2.344C103.842 1.85333 104.701 1.608 105.693 1.608C106.685 1.608 107.538 1.85333 108.253 2.344C108.967 2.824 109.517 3.50133 109.901 4.376C110.285 5.24 110.477 6.248 110.477 7.4C110.477 8.552 110.285 9.56533 109.901 10.44C109.517 11.304 108.967 11.9813 108.253 12.472C107.538 12.952 106.685 13.192 105.693 13.192ZM105.693 12.008C106.343 12.008 106.925 11.8267 107.437 11.464C107.959 11.0907 108.365 10.5627 108.653 9.88C108.951 9.18667 109.101 8.36 109.101 7.4C109.101 6.44 108.951 5.61867 108.653 4.936C108.365 4.25333 107.959 3.73067 107.437 3.368C106.925 2.99467 106.343 2.808 105.693 2.808C105.031 2.808 104.445 2.99467 103.933 3.368C103.421 3.73067 103.015 4.25333 102.717 4.936C102.418 5.61867 102.269 6.44 102.269 7.4C102.269 8.36 102.418 9.18667 102.717 9.88C103.015 10.5627 103.421 11.0907 103.933 11.464C104.445 11.8267 105.031 12.008 105.693 12.008ZM113.128 13L117.576 2.952H111.432V1.8H118.952V2.808L114.552 13H113.128Z" fill="#F9F9F7"/>
</svg>
