<svg width="146" height="16" viewBox="0 0 146 16" fill="none" xmlns="http://www.w3.org/2000/svg">
<path d="M1.968 15.52L3.936 11.232H3.472L0.32 4.064H1.776L4.4 10.24L7.184 4.064H8.576L3.376 15.52H1.968ZM12.8906 12.192C11.952 12.192 11.2053 11.9093 10.6506 11.344C10.096 10.768 9.81863 9.888 9.81863 8.704V4.064H11.1626V8.56C11.1626 10.2133 11.84 11.04 13.1946 11.04C13.888 11.04 14.4586 10.7947 14.9066 10.304C15.3653 9.80267 15.5946 9.09333 15.5946 8.176V4.064H16.9386V12H15.7226L15.6266 10.576C15.3813 11.0773 15.0133 11.472 14.5226 11.76C14.0426 12.048 13.4986 12.192 12.8906 12.192ZM19.1509 12V4.064H20.3669L20.4629 5.216C20.7189 4.78933 21.0602 4.45867 21.4869 4.224C21.9135 3.98933 22.3935 3.872 22.9269 3.872C23.5562 3.872 24.0949 4 24.5429 4.256C25.0015 4.512 25.3535 4.90133 25.5989 5.424C25.8762 4.944 26.2549 4.56533 26.7349 4.288C27.2255 4.01067 27.7535 3.872 28.3189 3.872C29.2682 3.872 30.0255 4.16 30.5909 4.736C31.1562 5.30133 31.4389 6.176 31.4389 7.36V12H30.1109V7.504C30.1109 6.68267 29.9455 6.064 29.6149 5.648C29.2842 5.232 28.8095 5.024 28.1909 5.024C27.5509 5.024 27.0175 5.27467 26.5909 5.776C26.1749 6.26667 25.9669 6.97067 25.9669 7.888V12H24.6229V7.504C24.6229 6.68267 24.4575 6.064 24.1269 5.648C23.7962 5.232 23.3215 5.024 22.7029 5.024C22.0735 5.024 21.5455 5.27467 21.1189 5.776C20.7029 6.26667 20.4949 6.97067 20.4949 7.888V12H19.1509ZM33.4634 12V4.064H34.6794L34.7754 5.216C35.0314 4.78933 35.3727 4.45867 35.7994 4.224C36.226 3.98933 36.706 3.872 37.2394 3.872C37.8687 3.872 38.4074 4 38.8554 4.256C39.314 4.512 39.666 4.90133 39.9114 5.424C40.1887 4.944 40.5674 4.56533 41.0474 4.288C41.538 4.01067 42.066 3.872 42.6314 3.872C43.5807 3.872 44.338 4.16 44.9034 4.736C45.4687 5.30133 45.7514 6.176 45.7514 7.36V12H44.4234V7.504C44.4234 6.68267 44.258 6.064 43.9274 5.648C43.5967 5.232 43.122 5.024 42.5034 5.024C41.8634 5.024 41.33 5.27467 40.9034 5.776C40.4874 6.26667 40.2794 6.97067 40.2794 7.888V12H38.9354V7.504C38.9354 6.68267 38.77 6.064 38.4394 5.648C38.1087 5.232 37.634 5.024 37.0154 5.024C36.386 5.024 35.858 5.27467 35.4314 5.776C35.0154 6.26667 34.8074 6.97067 34.8074 7.888V12H33.4634ZM48.4055 15.52L50.3735 11.232H49.9095L46.7575 4.064H48.2135L50.8375 10.24L53.6215 4.064H55.0135L49.8135 15.52H48.4055ZM61.3026 15.184C60.1613 15.184 59.1586 14.9653 58.2946 14.528C57.4413 14.0907 56.7746 13.472 56.2946 12.672C55.8253 11.872 55.5906 10.9227 55.5906 9.824C55.5906 8.69333 55.788 7.63733 56.1826 6.656C56.5773 5.67467 57.132 4.816 57.8466 4.08C58.5613 3.344 59.404 2.77333 60.3746 2.368C61.3453 1.96267 62.412 1.76 63.5746 1.76C64.7586 1.76 65.788 1.98933 66.6626 2.448C67.5373 2.896 68.2093 3.52533 68.6786 4.336C69.1586 5.136 69.3986 6.06933 69.3986 7.136C69.3986 7.744 69.324 8.34667 69.1746 8.944C69.0253 9.53067 68.8013 10.064 68.5026 10.544C68.2146 11.0133 67.8573 11.392 67.4306 11.68C67.0146 11.9573 66.5346 12.096 65.9906 12.096C65.4466 12.096 65.0306 11.9573 64.7426 11.68C64.4653 11.4027 64.3106 11.0293 64.2786 10.56C63.948 11.04 63.5266 11.4187 63.0146 11.696C62.5133 11.9627 61.98 12.096 61.4146 12.096C60.604 12.096 59.9693 11.8507 59.5106 11.36C59.0626 10.8693 58.8386 10.208 58.8386 9.376C58.8386 8.78933 58.9293 8.22933 59.1106 7.696C59.3026 7.152 59.5693 6.672 59.9106 6.256C60.252 5.82933 60.6573 5.49333 61.1266 5.248C61.596 5.00267 62.1186 4.88 62.6946 4.88C63.772 4.88 64.4706 5.32267 64.7906 6.208L64.9986 5.056H66.1346L65.3346 9.632C65.26 10.0907 65.2813 10.464 65.3986 10.752C65.5266 11.0293 65.788 11.168 66.1826 11.168C66.524 11.168 66.828 11.0507 67.0946 10.816C67.3613 10.5707 67.5853 10.2507 67.7666 9.856C67.948 9.45067 68.0813 9.01867 68.1666 8.56C68.2626 8.09067 68.3106 7.63733 68.3106 7.2C68.3106 5.80267 67.8733 4.704 66.9986 3.904C66.1346 3.104 64.94 2.704 63.4146 2.704C62.444 2.704 61.548 2.88533 60.7266 3.248C59.916 3.61067 59.2066 4.112 58.5986 4.752C57.9906 5.392 57.516 6.13333 57.1746 6.976C56.844 7.81867 56.6786 8.73067 56.6786 9.712C56.6786 10.672 56.876 11.488 57.2706 12.16C57.6653 12.832 58.2253 13.344 58.9506 13.696C59.676 14.048 60.54 14.224 61.5426 14.224C62.0013 14.224 62.46 14.176 62.9186 14.08C63.3773 13.9947 63.804 13.8613 64.1986 13.68L64.4226 14.592C63.4626 14.9867 62.4226 15.184 61.3026 15.184ZM61.8146 11.072C62.2733 11.072 62.6946 10.9493 63.0786 10.704C63.4626 10.4587 63.7773 10.1227 64.0226 9.696C64.268 9.25867 64.4173 8.75733 64.4706 8.192C64.5453 7.56267 64.4333 7.024 64.1346 6.576C63.8466 6.128 63.3773 5.904 62.7266 5.904C62.1826 5.904 61.708 6.064 61.3026 6.384C60.908 6.69333 60.604 7.09867 60.3906 7.6C60.1773 8.10133 60.0706 8.624 60.0706 9.168C60.0706 9.744 60.2146 10.208 60.5026 10.56C60.8013 10.9013 61.2386 11.072 61.8146 11.072ZM75.9378 12.192C75.2871 12.192 74.7058 12.0587 74.1938 11.792C73.6924 11.5253 73.3084 11.152 73.0418 10.672L72.9138 12H71.6978V0.48H73.0418V5.376C73.2978 4.992 73.6604 4.64533 74.1298 4.336C74.6098 4.02667 75.2178 3.872 75.9538 3.872C76.7431 3.872 77.4311 4.05333 78.0178 4.416C78.6044 4.77867 79.0578 5.27467 79.3778 5.904C79.7084 6.53333 79.8738 7.248 79.8738 8.048C79.8738 8.848 79.7084 9.56267 79.3778 10.192C79.0578 10.8107 78.5991 11.3013 78.0018 11.664C77.4151 12.016 76.7271 12.192 75.9378 12.192ZM75.7938 11.024C76.3271 11.024 76.7964 10.9013 77.2018 10.656C77.6071 10.4 77.9271 10.048 78.1618 9.6C78.3964 9.152 78.5138 8.62933 78.5138 8.032C78.5138 7.43467 78.3964 6.912 78.1618 6.464C77.9271 6.016 77.6071 5.66933 77.2018 5.424C76.7964 5.168 76.3271 5.04 75.7938 5.04C75.2604 5.04 74.7911 5.168 74.3858 5.424C73.9804 5.66933 73.6604 6.016 73.4258 6.464C73.1911 6.912 73.0738 7.43467 73.0738 8.032C73.0738 8.62933 73.1911 9.152 73.4258 9.6C73.6604 10.048 73.9804 10.4 74.3858 10.656C74.7911 10.9013 75.2604 11.024 75.7938 11.024ZM82.5606 2.304C82.294 2.304 82.07 2.21867 81.8886 2.048C81.718 1.86667 81.6326 1.64267 81.6326 1.376C81.6326 1.12 81.718 0.906666 81.8886 0.735999C82.07 0.565333 82.294 0.48 82.5606 0.48C82.8166 0.48 83.0353 0.565333 83.2166 0.735999C83.398 0.906666 83.4886 1.12 83.4886 1.376C83.4886 1.64267 83.398 1.86667 83.2166 2.048C83.0353 2.21867 82.8166 2.304 82.5606 2.304ZM81.8886 12V4.064H83.2326V12H81.8886ZM88.6128 12.192C87.6634 12.192 86.8741 11.952 86.2448 11.472C85.6154 10.992 85.2474 10.3413 85.1408 9.52H86.5168C86.6021 9.936 86.8208 10.2987 87.1728 10.608C87.5354 10.9067 88.0208 11.056 88.6288 11.056C89.1941 11.056 89.6101 10.9387 89.8768 10.704C90.1434 10.4587 90.2768 10.1707 90.2768 9.84C90.2768 9.36 90.1008 9.04 89.7488 8.88C89.4074 8.72 88.9221 8.576 88.2928 8.448C87.8661 8.36267 87.4394 8.24 87.0128 8.08C86.5861 7.92 86.2288 7.696 85.9408 7.408C85.6528 7.10933 85.5088 6.72 85.5088 6.24C85.5088 5.54667 85.7648 4.98133 86.2768 4.544C86.7994 4.096 87.5034 3.872 88.3888 3.872C89.2314 3.872 89.9194 4.08533 90.4528 4.512C90.9968 4.928 91.3114 5.52533 91.3968 6.304H90.0688C90.0154 5.89867 89.8394 5.584 89.5408 5.36C89.2528 5.12533 88.8634 5.008 88.3728 5.008C87.8928 5.008 87.5194 5.10933 87.2528 5.312C86.9968 5.51467 86.8688 5.78133 86.8688 6.112C86.8688 6.432 87.0341 6.68267 87.3648 6.864C87.7061 7.04533 88.1648 7.2 88.7408 7.328C89.2314 7.43467 89.6954 7.568 90.1328 7.728C90.5808 7.87733 90.9434 8.10667 91.2208 8.416C91.5088 8.71467 91.6528 9.152 91.6528 9.728C91.6634 10.4427 91.3914 11.0347 90.8368 11.504C90.2928 11.9627 89.5514 12.192 88.6128 12.192ZM96.3494 12C95.624 12 95.0534 11.824 94.6374 11.472C94.2214 11.12 94.0134 10.4853 94.0134 9.568V5.2H92.6374V4.064H94.0134L94.1894 2.16H95.3574V4.064H97.6934V5.2H95.3574V9.568C95.3574 10.0693 95.4587 10.4107 95.6614 10.592C95.864 10.7627 96.2214 10.848 96.7334 10.848H97.5654V12H96.3494ZM99.4009 12V4.064H100.617L100.729 5.584C100.974 5.06133 101.348 4.64533 101.849 4.336C102.35 4.02667 102.969 3.872 103.705 3.872V5.28H103.337C102.868 5.28 102.436 5.36533 102.041 5.536C101.646 5.696 101.332 5.97333 101.097 6.368C100.862 6.76267 100.745 7.30667 100.745 8V12H99.4009ZM108.533 12.192C107.786 12.192 107.114 12.0213 106.517 11.68C105.919 11.3387 105.445 10.8587 105.093 10.24C104.751 9.61067 104.581 8.87467 104.581 8.032C104.581 7.18933 104.757 6.45867 105.109 5.84C105.461 5.21067 105.935 4.72533 106.533 4.384C107.141 4.04267 107.818 3.872 108.565 3.872C109.311 3.872 109.983 4.04267 110.581 4.384C111.178 4.72533 111.647 5.21067 111.989 5.84C112.341 6.45867 112.517 7.18933 112.517 8.032C112.517 8.87467 112.341 9.61067 111.989 10.24C111.637 10.8587 111.157 11.3387 110.549 11.68C109.951 12.0213 109.279 12.192 108.533 12.192ZM108.533 11.04C108.991 11.04 109.418 10.928 109.813 10.704C110.207 10.48 110.527 10.144 110.773 9.696C111.018 9.248 111.141 8.69333 111.141 8.032C111.141 7.37067 111.018 6.816 110.773 6.368C110.538 5.92 110.223 5.584 109.829 5.36C109.434 5.136 109.013 5.024 108.565 5.024C108.106 5.024 107.679 5.136 107.285 5.36C106.89 5.584 106.57 5.92 106.325 6.368C106.079 6.816 105.957 7.37067 105.957 8.032C105.957 8.69333 106.079 9.248 106.325 9.696C106.57 10.144 106.885 10.48 107.269 10.704C107.663 10.928 108.085 11.04 108.533 11.04ZM118.625 12.192C117.975 12.192 117.393 12.0587 116.881 11.792C116.38 11.5253 115.996 11.152 115.729 10.672L115.601 12H114.385V0.48H115.729V5.376C115.985 4.992 116.348 4.64533 116.817 4.336C117.297 4.02667 117.905 3.872 118.641 3.872C119.431 3.872 120.119 4.05333 120.705 4.416C121.292 4.77867 121.745 5.27467 122.065 5.904C122.396 6.53333 122.561 7.248 122.561 8.048C122.561 8.848 122.396 9.56267 122.065 10.192C121.745 10.8107 121.287 11.3013 120.689 11.664C120.103 12.016 119.415 12.192 118.625 12.192ZM118.481 11.024C119.015 11.024 119.484 10.9013 119.889 10.656C120.295 10.4 120.615 10.048 120.849 9.6C121.084 9.152 121.201 8.62933 121.201 8.032C121.201 7.43467 121.084 6.912 120.849 6.464C120.615 6.016 120.295 5.66933 119.889 5.424C119.484 5.168 119.015 5.04 118.481 5.04C117.948 5.04 117.479 5.168 117.073 5.424C116.668 5.66933 116.348 6.016 116.113 6.464C115.879 6.912 115.761 7.43467 115.761 8.032C115.761 8.62933 115.879 9.152 116.113 9.6C116.348 10.048 116.668 10.4 117.073 10.656C117.479 10.9013 117.948 11.024 118.481 11.024ZM124.432 12V0.48H125.776V12H124.432ZM128.795 2.304C128.528 2.304 128.304 2.21867 128.123 2.048C127.952 1.86667 127.867 1.64267 127.867 1.376C127.867 1.12 127.952 0.906666 128.123 0.735999C128.304 0.565333 128.528 0.48 128.795 0.48C129.051 0.48 129.27 0.565333 129.451 0.735999C129.632 0.906666 129.723 1.12 129.723 1.376C129.723 1.64267 129.632 1.86667 129.451 2.048C129.27 2.21867 129.051 2.304 128.795 2.304ZM128.123 12V4.064H129.467V12H128.123ZM134.847 12.192C133.898 12.192 133.108 11.952 132.479 11.472C131.85 10.992 131.482 10.3413 131.375 9.52H132.751C132.836 9.936 133.055 10.2987 133.407 10.608C133.77 10.9067 134.255 11.056 134.863 11.056C135.428 11.056 135.844 10.9387 136.111 10.704C136.378 10.4587 136.511 10.1707 136.511 9.84C136.511 9.36 136.335 9.04 135.983 8.88C135.642 8.72 135.156 8.576 134.527 8.448C134.1 8.36267 133.674 8.24 133.247 8.08C132.82 7.92 132.463 7.696 132.175 7.408C131.887 7.10933 131.743 6.72 131.743 6.24C131.743 5.54667 131.999 4.98133 132.511 4.544C133.034 4.096 133.738 3.872 134.623 3.872C135.466 3.872 136.154 4.08533 136.687 4.512C137.231 4.928 137.546 5.52533 137.631 6.304H136.303C136.25 5.89867 136.074 5.584 135.775 5.36C135.487 5.12533 135.098 5.008 134.607 5.008C134.127 5.008 133.754 5.10933 133.487 5.312C133.231 5.51467 133.103 5.78133 133.103 6.112C133.103 6.432 133.268 6.68267 133.599 6.864C133.94 7.04533 134.399 7.2 134.975 7.328C135.466 7.43467 135.93 7.568 136.367 7.728C136.815 7.87733 137.178 8.10667 137.455 8.416C137.743 8.71467 137.887 9.152 137.887 9.728C137.898 10.4427 137.626 11.0347 137.071 11.504C136.527 11.9627 135.786 12.192 134.847 12.192ZM142.847 12.192C141.898 12.192 141.108 11.952 140.479 11.472C139.85 10.992 139.482 10.3413 139.375 9.52H140.751C140.836 9.936 141.055 10.2987 141.407 10.608C141.77 10.9067 142.255 11.056 142.863 11.056C143.428 11.056 143.844 10.9387 144.111 10.704C144.378 10.4587 144.511 10.1707 144.511 9.84C144.511 9.36 144.335 9.04 143.983 8.88C143.642 8.72 143.156 8.576 142.527 8.448C142.1 8.36267 141.674 8.24 141.247 8.08C140.82 7.92 140.463 7.696 140.175 7.408C139.887 7.10933 139.743 6.72 139.743 6.24C139.743 5.54667 139.999 4.98133 140.511 4.544C141.034 4.096 141.738 3.872 142.623 3.872C143.466 3.872 144.154 4.08533 144.687 4.512C145.231 4.928 145.546 5.52533 145.631 6.304H144.303C144.25 5.89867 144.074 5.584 143.775 5.36C143.487 5.12533 143.098 5.008 142.607 5.008C142.127 5.008 141.754 5.10933 141.487 5.312C141.231 5.51467 141.103 5.78133 141.103 6.112C141.103 6.432 141.268 6.68267 141.599 6.864C141.94 7.04533 142.399 7.2 142.975 7.328C143.466 7.43467 143.93 7.568 144.367 7.728C144.815 7.87733 145.178 8.10667 145.455 8.416C145.743 8.71467 145.887 9.152 145.887 9.728C145.898 10.4427 145.626 11.0347 145.071 11.504C144.527 11.9627 143.786 12.192 142.847 12.192Z" fill="#F9F9F7"/>
</svg>
